<svg width="233" height="33" viewBox="0 0 233 33" fill="none" xmlns="http://www.w3.org/2000/svg">
<path d="M51.2071 23.9161C51.2071 21.8411 50.6582 20.0889 49.5605 18.7056C48.3714 17.2301 46.6791 16.4462 44.4838 16.354C44.0721 16.354 43.7062 15.9852 43.7062 15.5241C43.7062 14.8324 43.9349 14.3713 44.3008 14.0485C44.621 13.7719 45.0783 13.6335 45.6729 13.6335C46.4504 13.6335 47.228 13.818 48.0512 14.1407C48.4171 13.7719 48.6915 13.2647 48.9202 12.6652C49.2404 11.7891 49.3776 10.8669 49.3776 9.99084C49.3776 7.45478 48.3714 5.42593 46.359 3.9043C43.9807 2.0599 40.3674 1.1377 35.6108 1.1377C33.5984 1.1377 31.7232 1.27601 30.0309 1.55267C26.8751 2.10599 24.634 2.84377 23.3991 3.76598C22.8503 4.18097 22.7588 4.41152 22.7588 4.45763V27.5588C22.7588 29.1726 23.0789 30.4176 23.765 31.1554C24.4053 31.8931 25.5487 32.4003 27.1038 32.6309C28.8418 32.8614 31.6317 32.9998 35.3821 32.9998C40.6419 32.9998 44.621 32.262 47.228 30.8787C49.9264 29.4032 51.2071 27.0977 51.2071 23.9161ZM37.8519 22.2561C37.8519 22.9939 37.7147 23.5472 37.4403 23.9161C37.2116 24.1927 36.8 24.5616 36.0682 24.5616C35.6108 24.5616 35.2907 24.5155 35.0162 24.3311C34.8333 24.1927 34.6961 23.9161 34.6961 23.6855V20.5962C34.6961 20.4117 34.6961 20.3195 34.6961 20.3195C34.6503 19.9967 34.7876 19.6279 35.1077 19.4434C35.3364 19.3051 35.7023 19.2129 36.1597 19.2129C36.8 19.2129 37.3031 19.4895 37.5775 20.0428C37.8062 20.4578 37.8977 20.965 37.8977 21.7489V22.2561H37.8519ZM37.8519 12.6191C37.8519 13.3569 37.7147 13.9102 37.486 14.2791C37.1659 14.7402 36.6628 15.0168 36.1139 15.0168C35.6566 15.0168 35.3364 14.9707 35.062 14.7863C34.879 14.6479 34.7418 14.3713 34.7418 14.1407V11.2819C34.7418 11.0975 34.7418 11.0052 34.7418 11.0052C34.6961 10.6825 34.8333 10.3136 35.1535 10.1292C35.3821 9.99083 35.748 9.89861 36.2054 9.89861C36.8457 9.89861 37.3031 10.1753 37.6232 10.7286C37.8519 11.0975 37.9434 11.6508 37.9434 12.4347V12.6191H37.8519Z" fill="#ECA39D"/>
<path d="M76.445 28.5017C76.445 27.8201 76.356 27.0476 76.1335 26.2297C76 25.7754 75.911 25.4573 75.7775 25.2301C75.021 25.6845 74.131 26.048 73.1074 26.3661C71.7724 26.775 70.2594 27.0022 68.6129 27.0022C66.9664 27.0022 65.4979 26.775 64.1629 26.3206C63.1839 26.0026 61.8044 25.4119 61.8044 24.2759C61.8044 23.6398 62.0714 23.3217 62.2939 23.14C62.5609 22.9582 62.8724 22.9128 63.1394 23.0945C64.5189 23.9578 66.2989 24.4122 68.3459 24.4122C71.105 24.4122 73.33 23.8215 74.8875 22.5947C76.534 21.3224 77.3795 19.5049 77.3795 17.0058C77.3795 14.1432 76.356 11.7804 74.2645 9.78112C72.173 7.82728 69.3249 6.82764 65.8539 6.82764C62.3384 6.82764 59.4459 7.96359 57.1764 10.1446C54.7289 12.5074 53.4829 15.779 53.4829 19.8684C53.4829 23.9578 54.6844 27.184 57.0874 29.5013C59.4014 31.8187 62.6499 33 66.7439 33C69.2359 33 71.3275 32.682 73.063 32.0458C74.1755 31.6369 75.288 31.0008 76.356 30.092C76.4005 29.5922 76.445 29.0469 76.445 28.5017ZM66.3434 14.9156C68.2124 14.9156 68.3459 16.1879 68.3459 16.5514C68.3459 17.3693 67.8564 18.2326 66.4324 18.2326C65.7204 18.2326 65.0974 18.0509 64.5634 17.6874C64.2964 17.5056 64.1629 17.233 64.2074 16.9149C64.3409 15.6427 65.1419 14.9156 66.3434 14.9156Z" fill="#ECA39D"/>
<path d="M103.711 28.5017C103.711 27.8201 103.618 27.0476 103.384 26.2297C103.245 25.7754 103.151 25.4573 103.011 25.2301C102.219 25.6845 101.287 26.048 100.214 26.3661C98.8157 26.775 97.2307 27.0022 95.5058 27.0022C93.7809 27.0022 92.2424 26.775 90.8439 26.3206C89.8182 26.0026 88.3731 25.4119 88.3731 24.2759C88.3731 23.6398 88.6528 23.3217 88.8859 23.14C89.1656 22.9582 89.4919 22.9128 89.7716 23.0945C91.2168 23.9578 93.0816 24.4122 95.2261 24.4122C98.1164 24.4122 100.447 23.8215 102.079 22.5947C103.804 21.3224 104.69 19.5049 104.69 17.0058C104.69 14.1432 103.618 11.7804 101.426 9.78112C99.2353 7.82728 96.2517 6.82764 92.6154 6.82764C88.9325 6.82764 85.9022 7.96359 83.5247 10.1446C80.9606 12.5074 79.6553 15.779 79.6553 19.8684C79.6553 23.9578 80.914 27.184 83.4314 29.5013C85.8556 31.8187 89.2588 33 93.5478 33C96.1584 33 98.3495 32.682 100.168 32.0458C101.333 31.6369 102.499 31.0008 103.618 30.092C103.664 29.5922 103.711 29.0469 103.711 28.5017ZM93.1282 14.9156C95.0862 14.9156 95.2261 16.1879 95.2261 16.5514C95.2261 17.3693 94.7133 18.2326 93.2214 18.2326C92.4755 18.2326 91.8229 18.0509 91.2634 17.6874C90.9837 17.5056 90.8439 17.233 90.8905 16.9149C91.0303 15.6427 91.8695 14.9156 93.1282 14.9156Z" fill="#ECA39D"/>
<path d="M111.449 18.207C109.908 18.207 108.593 18.7468 107.505 19.8712C106.372 21.0406 105.828 22.345 105.828 23.9192C105.828 25.4934 106.372 26.7977 107.505 27.9222C108.638 29.0466 109.908 29.5863 111.495 29.5863C113.081 29.5863 114.396 29.0466 115.53 27.9222C116.663 26.7977 117.207 25.4934 117.207 23.9192C117.207 22.345 116.663 21.0406 115.53 19.8712C114.305 18.7468 112.991 18.207 111.449 18.207Z" fill="#FFC03F"/>
<path d="M121.759 27.3034C121.759 28.8532 122.121 30.0385 122.892 30.7678C123.662 31.4972 124.75 31.8618 126.201 31.8618H142.02C142.382 31.3604 142.654 30.7222 142.926 29.9017C143.198 28.8988 143.379 27.9416 143.379 27.121C143.379 25.5711 142.972 24.0669 142.201 22.5626H137.351C134.631 22.5626 132.592 23.1096 131.277 24.2492C131.051 24.4315 130.688 24.4771 130.416 24.2948C129.736 23.8845 129.646 23.3375 129.646 23.0184C129.646 21.9244 130.869 21.3317 131.232 21.1494C131.912 20.8303 132.592 20.6024 133.272 20.4656V5.9241C133.272 4.37422 132.728 3.189 131.549 2.32289C130.461 1.54795 129.056 1.1377 127.425 1.1377C126.291 1.1377 125.158 1.32002 124.116 1.63912C123.209 1.91263 122.393 2.32291 121.759 2.82434V27.3034Z" fill="white"/>
<path d="M158.173 25.7867C157.052 24.8866 156.491 23.3115 156.491 21.1064V12.6458C156.398 12.5558 156.258 12.4658 156.071 12.3308C155.277 12.7808 154.483 13.0508 153.735 13.0508C153.035 13.0508 152.334 12.6458 152.334 11.4757C152.334 11.1157 152.568 10.8457 152.941 10.7557C154.156 10.5307 155.137 9.90065 155.977 8.95559C156.818 7.96552 157.238 6.88545 157.238 5.58037C157.238 3.96027 156.678 2.65517 155.604 1.5751C154.483 0.495032 153.175 0 151.494 0C149.859 0 148.504 0.495032 147.337 1.5751C146.216 2.61017 145.655 3.91526 145.655 5.58037C145.655 6.52543 145.889 7.33549 146.356 8.01054C146.823 8.68558 147.337 9.18059 147.85 9.45061C148.084 9.58562 148.271 9.81064 148.271 10.0807C148.271 10.3507 148.131 10.6207 147.85 10.7107C147.477 10.8907 147.103 11.0707 146.776 11.2057C146.636 11.2507 146.496 11.3407 146.356 11.3858V25.3366C146.356 27.6768 147.01 29.3419 148.411 30.512C149.485 31.412 150.84 31.8621 152.568 31.8621C154.249 31.8621 155.604 31.412 156.585 30.512C157.659 29.5669 158.173 28.0818 158.173 26.1467V25.7867Z" fill="white"/>
<path d="M182.306 28.7336C182.306 28.0773 182.211 27.3741 181.974 26.5302C181.88 26.1083 181.737 25.7801 181.642 25.5457C180.884 25.9677 180.03 26.3427 178.987 26.6709C177.66 27.0928 176.142 27.2803 174.483 27.2803C172.871 27.2803 171.354 27.0459 170.073 26.624C169.078 26.2958 167.703 25.7801 167.703 24.655C167.703 24.0455 167.987 23.7174 168.177 23.5299C168.414 23.3423 168.746 23.3423 169.03 23.483C170.405 24.3268 172.16 24.7488 174.198 24.7488C176.948 24.7488 179.177 24.1862 180.742 23.0141C182.401 21.7952 183.207 20.0607 183.207 17.6697C183.207 14.9037 182.211 12.6534 180.078 10.7782C177.992 8.90295 175.147 7.96533 171.686 7.96533C168.177 7.96533 165.285 9.04359 163.009 11.1532C160.543 13.4035 159.311 16.5446 159.311 20.4357C159.311 24.3268 160.496 27.421 162.867 29.6713C165.19 31.8747 168.414 32.9998 172.492 32.9998C174.957 32.9998 177.091 32.6716 178.798 32.0622C179.936 31.6871 181.026 31.0777 182.069 30.1869C182.259 29.765 182.306 29.2493 182.306 28.7336ZM172.207 15.7476C174.056 15.7476 174.198 16.9665 174.198 17.3415C174.198 18.1385 173.677 18.9824 172.255 18.9824C171.543 18.9824 170.927 18.7948 170.358 18.4667C170.121 18.326 169.979 17.9979 169.979 17.7166C170.216 16.4508 171.022 15.7476 172.207 15.7476Z" fill="white"/>
<path d="M203.7 28.5478C205.076 25.6311 206.452 21.5655 207.828 16.4393C208.104 15.4229 208.241 14.4507 208.241 13.5227C208.241 12.2411 207.828 11.2247 207.003 10.4293C206.086 9.54543 204.71 9.10352 202.967 9.10352C201.27 9.10352 199.802 9.45706 198.609 10.1641C198.563 10.6502 198.472 11.6666 198.288 13.6994C197.921 17.7209 197.738 20.5049 197.738 21.9633C197.738 23.1122 197.004 23.51 196.362 23.51C196.087 23.51 195.811 23.4658 195.582 23.3332C195.353 23.2448 195.169 23.0238 195.123 22.7587C195.123 22.6261 195.078 22.4052 195.078 22.14V21.6097C195.078 19.0024 195.215 16.3509 195.536 13.6552C195.353 12.2853 194.94 11.2689 194.344 10.5618C193.518 9.63381 192.28 9.1919 190.537 9.1919H185.354C184.666 10.2967 184.345 11.6224 184.345 13.0808C184.345 13.832 184.482 14.6275 184.803 15.3345C185.079 16.0416 185.446 16.6161 185.812 16.9696C185.904 17.058 185.95 17.1906 185.996 17.2789C187.372 22.3168 189.115 26.9569 191.179 31.1109C191.683 31.2876 192.371 31.4202 193.243 31.597C194.252 31.7738 195.307 31.8621 196.362 31.8621C198.334 31.8621 199.802 31.6412 200.811 31.2435C202.095 30.8457 203.058 29.9177 203.7 28.5478Z" fill="white"/>
<path d="M231.28 28.7336C231.28 28.0773 231.19 27.3741 230.964 26.5302C230.874 26.1083 230.738 25.7801 230.648 25.5457C229.925 25.9677 229.113 26.3427 228.119 26.6709C226.855 27.0928 225.41 27.2803 223.829 27.2803C222.249 27.2803 220.849 27.0459 219.63 26.624C218.682 26.2958 217.372 25.7801 217.372 24.655C217.372 24.0455 217.643 23.7174 217.824 23.5299C218.049 23.3423 218.365 23.3423 218.636 23.483C219.946 24.3268 221.617 24.7488 223.558 24.7488C226.177 24.7488 228.3 24.1862 229.79 23.0141C231.37 21.7952 232.138 20.0607 232.138 17.6697C232.138 14.9037 231.19 12.6534 229.158 10.7782C227.171 8.90295 224.461 7.96533 221.165 7.96533C217.824 7.96533 215.069 9.04359 212.902 11.1532C210.553 13.4035 209.379 16.5446 209.379 20.4357C209.379 24.3268 210.508 27.421 212.766 29.6713C214.979 31.8747 218.049 32.9998 221.933 32.9998C224.281 32.9998 226.313 32.6716 227.939 32.0622C229.022 31.6871 230.061 31.0777 231.054 30.1869C231.235 29.765 231.28 29.2493 231.28 28.7336ZM221.662 15.7476C223.423 15.7476 223.558 16.9665 223.558 17.3415C223.558 18.1385 223.062 18.9824 221.707 18.9824C221.03 18.9824 220.443 18.7948 219.901 18.4667C219.675 18.326 219.54 17.9979 219.54 17.7166C219.765 16.4508 220.533 15.7476 221.662 15.7476Z" fill="white"/>
<path d="M18.7348 18.9758C19.3293 19.7284 20.6097 19.2414 20.4726 18.3117C19.9238 13.7515 17.8203 6.97773 10.092 5.07399C-1.88899 2.15197 -2.62066 12.3791 4.83319 13.8401C10.8237 15.0355 15.8082 15.3011 18.7348 18.9758Z" fill="#ECA39D"/>
<path d="M19.6513 23.3992C20.3994 23.4845 20.7735 22.6319 20.2124 22.2056C17.4536 20.1594 12.6374 17.8148 7.54057 20.671C-0.408525 25.0617 4.73501 30.5609 9.55123 27.6195C13.3387 25.3175 16.0975 22.9729 19.6513 23.3992Z" fill="#ECA39D"/>
</svg>
