<?xml version="1.0" encoding="utf-8"?>
<!-- Generator: Adobe Illustrator 24.2.1, SVG Export Plug-In . SVG Version: 6.00 Build 0)  -->
<svg version="1.1" id="Layer_1" xmlns="http://www.w3.org/2000/svg" xmlns:xlink="http://www.w3.org/1999/xlink" x="0px" y="0px"
	 viewBox="0 0 146 154" style="enable-background:new 0 0 146 154;" xml:space="preserve">
<style type="text/css">
	.st0{fill:#2653B0;}
	.st1{fill:#FFFFFF;}
	.st2{fill:#FFC03F;}
</style>
<g>
	<path class="st0" d="M114.9,88.1c0-3.4-0.9-6.2-2.7-8.4c-2-2.4-4.7-3.7-8.3-3.8c-0.7,0-1.3-0.6-1.3-1.3c0-1.1,0.3-1.9,1-2.4
		c0.6-0.4,1.3-0.6,2.2-0.6c1.3,0,2.6,0.3,3.9,0.9c0.6-0.6,1-1.4,1.4-2.4c0.5-1.4,0.8-2.9,0.8-4.4c0-4.1-1.6-7.4-4.9-9.9
		c-3.9-3-9.8-4.5-17.6-4.5c-3.3,0-6.4,0.2-9.1,0.7c-5.2,0.9-8.8,2.1-10.8,3.6c-0.9,0.7-1,1.1-1,1.1v37.5c0,2.7,0.5,4.6,1.6,5.8
		c1.1,1.2,2.9,2,5.5,2.4c2.8,0.4,7.4,0.6,13.5,0.6c8.6,0,15.2-1.2,19.4-3.5C112.8,97,114.9,93.3,114.9,88.1z M93,85.4
		c0,1.2-0.2,2.1-0.7,2.7c-0.4,0.5-1,1.1-2.2,1.1c-0.8,0-1.3-0.1-1.7-0.4c-0.3-0.2-0.5-0.6-0.5-1.1v-5c0-0.3,0-0.4,0-0.5
		c-0.1-0.5,0.2-1.1,0.6-1.4c0.4-0.2,0.9-0.3,1.7-0.3c1,0,1.8,0.5,2.3,1.4c0.3,0.6,0.5,1.5,0.5,2.8V85.4z M93,69.8
		c0,1.2-0.2,2.1-0.6,2.7c-0.5,0.8-1.3,1.2-2.3,1.2c-0.8,0-1.3-0.1-1.7-0.4c-0.3-0.3-0.5-0.6-0.5-1.1v-4.6c0-0.3,0-0.4,0-0.5
		c-0.1-0.5,0.2-1.1,0.6-1.4c0.4-0.2,0.9-0.3,1.7-0.3c1,0,1.8,0.5,2.3,1.3c0.3,0.6,0.5,1.5,0.5,2.7V69.8z"/>
	<path class="st1" d="M62.7,80.6c1,1.3,3.1,0.5,3-1.2c-0.9-8-4.5-19.8-17.5-23.1c-20.2-5.1-21.5,12.8-8.9,15.3
		C49.3,73.7,57.8,74.2,62.7,80.6z"/>
	<path class="st2" d="M64.3,87.2c1.2,0.2,1.9-1.4,0.9-2.2c-4.6-3.7-12.5-7.9-21-2.8c-13.2,8-4.6,18,3.3,12.6
		C53.8,90.7,58.4,86.4,64.3,87.2z"/>
</g>
</svg>
