<svg width="134" height="83" viewBox="0 0 134 83" fill="none" xmlns="http://www.w3.org/2000/svg">
<path d="M133.704 58.8C133.704 53.4 132.304 48.9 129.404 45.4C126.304 41.5 121.904 39.5 116.204 39.3C115.104 39.3 114.204 38.3 114.204 37.2C114.204 35.5 114.704 34.2 115.804 33.4C116.704 32.7 117.904 32.4 119.304 32.4C121.304 32.4 123.404 32.9 125.504 33.8C126.404 32.8 127.204 31.5 127.804 29.9C128.604 27.6 129.004 25.3 129.004 22.9C129.004 16.3 126.404 11.1 121.104 7.09999C114.904 2.39999 105.404 0 93.1041 0C87.8041 0 82.9042 0.399998 78.5042 1.1C70.2042 2.5 64.4041 4.49999 61.2041 6.89999C59.8041 7.99999 59.6041 8.59999 59.6041 8.59999V68.5C59.6041 72.7 60.5041 75.9 62.2041 77.8C63.9041 79.7 66.9042 81 71.0042 81.6C75.5042 82.2 82.8041 82.5 92.6041 82.5C106.404 82.5 116.804 80.6 123.504 76.9C130.304 73 133.704 67.1 133.704 58.8ZM98.7041 54.5C98.7041 56.5 98.4041 57.8 97.6041 58.8C97.0041 59.6 95.9042 60.5 94.0042 60.5C92.8042 60.5 91.9041 60.4 91.2041 59.9C90.7041 59.5 90.4041 58.9 90.4041 58.2V50.2C90.4041 49.7 90.4041 49.5 90.4041 49.5C90.3041 48.6 90.7041 47.7 91.4041 47.3C92.1041 46.9 92.9041 46.8 94.2041 46.8C95.8041 46.8 97.1041 47.6 97.9041 49C98.4041 50 98.7041 51.4 98.7041 53.4V54.5V54.5ZM98.7041 29.6C98.7041 31.5 98.4041 32.9 97.7041 34C96.9041 35.2 95.6041 35.9 94.1041 35.9C92.9041 35.9 92.0041 35.8 91.3041 35.3C90.8041 34.9 90.5042 34.3 90.5042 33.6V26.2C90.5042 25.7 90.5042 25.5 90.5042 25.5C90.4042 24.6 90.8042 23.7 91.5042 23.3C92.2042 22.9 93.0041 22.8 94.3041 22.8C95.9041 22.8 97.2042 23.6 98.0042 24.9C98.5042 25.9 98.8041 27.3 98.8041 29.3V29.6H98.7041Z" fill="#2653B0"/>
<path d="M50.5041 46.9C52.1041 49 55.5041 47.7 55.2041 45C53.8041 32.3 48.1041 13.4 27.2041 8.2C-5.09592 -2.86102e-06 -7.0959 28.6 13.1041 32.7C29.1041 35.9 42.6041 36.6 50.5041 46.9Z" fill="white"/>
<path d="M53.0041 57.3C54.9041 57.5 56.0041 55.1 54.5041 53.8C47.2041 47.9 34.6041 41.1 21.0041 49.4C0.00413609 62.1 13.7041 78 26.2041 69.6C36.2041 62.9 43.6041 56.1 53.0041 57.3Z" fill="#FFC03F"/>
</svg>
