<svg width="76" height="48" viewBox="0 0 76 48" fill="none" xmlns="http://www.w3.org/2000/svg">
<rect x="28" y="9" width="48" height="23" rx="4" fill="#E6E6F1"/>
<path d="M44.8039 23.9012C44.5491 23.9012 44.3515 23.8354 44.2109 23.7037C44.0703 23.572 44 23.3909 44 23.1605V15.9259C44 15.6872 44.0747 15.4979 44.224 15.358C44.3822 15.2099 44.5887 15.1358 44.8435 15.1358C45.1071 15.1358 45.3135 15.2099 45.4629 15.358C45.6211 15.4979 45.7001 15.6872 45.7001 15.9259V22.5926H49.4036C49.9307 22.5926 50.1943 22.8107 50.1943 23.2469C50.1943 23.6831 49.9307 23.9012 49.4036 23.9012H44.8039Z" fill="black"/>
<path d="M51.9826 23.9753C51.7454 23.9753 51.5477 23.9136 51.3895 23.7901C51.2402 23.6584 51.1655 23.4733 51.1655 23.2346V18.4691C51.1655 18.2305 51.2402 18.0494 51.3895 17.9259C51.5477 17.8025 51.7454 17.7407 51.9826 17.7407C52.2198 17.7407 52.4175 17.8025 52.5757 17.9259C52.7338 18.0494 52.8129 18.2305 52.8129 18.4691V23.2346C52.8129 23.4733 52.7338 23.6584 52.5757 23.7901C52.4175 23.9136 52.2198 23.9753 51.9826 23.9753ZM51.9826 16.642C51.6839 16.642 51.4466 16.5679 51.2709 16.4198C51.0952 16.2634 51.0073 16.0617 51.0073 15.8148C51.0073 15.5679 51.0952 15.3704 51.2709 15.2222C51.4466 15.0741 51.6839 15 51.9826 15C52.2725 15 52.5054 15.0741 52.6811 15.2222C52.8656 15.3704 52.9579 15.5679 52.9579 15.8148C52.9579 16.0617 52.87 16.2634 52.6943 16.4198C52.5186 16.5679 52.2813 16.642 51.9826 16.642Z" fill="black"/>
<path d="M59.006 18.1852C59.0763 18.037 59.1685 17.9259 59.2827 17.8519C59.4058 17.7778 59.5375 17.7407 59.6781 17.7407C59.8802 17.7407 60.0603 17.8066 60.2185 17.9383C60.3854 18.0617 60.4689 18.2181 60.4689 18.4074C60.4689 18.5062 60.4425 18.6049 60.3898 18.7037L57.9516 23.4815C57.8725 23.6379 57.7583 23.7572 57.609 23.8395C57.4684 23.9218 57.3102 23.963 57.1345 23.963C56.9676 23.963 56.805 23.9218 56.6469 23.8395C56.4975 23.7572 56.3833 23.6379 56.3042 23.4815L53.8528 18.7037C53.8089 18.6214 53.7869 18.5267 53.7869 18.4198C53.7869 18.2305 53.8704 18.07 54.0373 17.9383C54.2131 17.8066 54.4108 17.7407 54.6304 17.7407C54.9467 17.7407 55.1796 17.8848 55.3289 18.1728L57.174 21.9877L59.006 18.1852Z" fill="black"/>
<path d="M66.4465 22.2469C66.5958 22.2469 66.7144 22.3004 66.8023 22.4074C66.899 22.5144 66.9473 22.6584 66.9473 22.8395C66.9473 23.0947 66.7847 23.3086 66.4596 23.4815C66.1609 23.6379 65.8226 23.7654 65.4448 23.8642C65.067 23.9547 64.7068 24 64.3641 24C63.3273 24 62.5058 23.7202 61.8996 23.1605C61.2933 22.6008 60.9902 21.8354 60.9902 20.8642C60.9902 20.2469 61.122 19.6996 61.3856 19.2222C61.6492 18.7449 62.0182 18.3745 62.4926 18.1111C62.9759 17.8477 63.5206 17.716 64.1269 17.716C64.7068 17.716 65.212 17.8354 65.6425 18.0741C66.073 18.3128 66.4069 18.6502 66.6442 19.0864C66.8814 19.5226 67 20.037 67 20.6296C67 20.9835 66.8331 21.1605 66.4992 21.1605H62.6113C62.664 21.7284 62.8353 22.1481 63.1253 22.4198C63.4152 22.6831 63.8369 22.8148 64.3905 22.8148C64.6716 22.8148 64.9177 22.7819 65.1285 22.716C65.3482 22.6502 65.5942 22.5597 65.8666 22.4444C66.1302 22.3128 66.3235 22.2469 66.4465 22.2469ZM64.1664 18.8025C63.7183 18.8025 63.3581 18.9342 63.0857 19.1975C62.8221 19.4609 62.664 19.8395 62.6113 20.3333H65.5898C65.5722 19.8313 65.4404 19.4527 65.1944 19.1975C64.9484 18.9342 64.6057 18.8025 64.1664 18.8025Z" fill="black"/>
<path d="M20 4C11.168 4 4 11.168 4 20C4 28.832 11.168 36 20 36C28.832 36 36 28.832 36 20C36 11.168 28.832 4 20 4ZM16.8 27.2V12.8L26.4 20L16.8 27.2Z" fill="#E6E6F1"/>
</svg>
